<svg xmlns="http://www.w3.org/2000/svg" width="16" height="16" viewBox="0 0 16 16">
  <path fill-rule="evenodd" d="M3.85965561,3.69490374 C4.22597284,3.40987275 4.75159722,3.43843822 5.08737837,3.77421937 L5.08737837,3.77421937 L10.999,9.686 L16.9105556,3.77421937 C17.2463368,3.43843822 17.7719612,3.40987275 18.1382784,3.69490374 L18.2263367,3.77269844 C18.5892597,4.13562137 18.5947279,4.71856743 18.2248158,5.08847955 L12.313,11 L18.2248158,16.9116568 C18.5662732,17.2531142 18.5878798,17.7760915 18.3037347,18.1399779 L18.2263367,18.2274379 L18.1382784,18.3052326 C17.7719612,18.5902636 17.2463368,18.5616982 16.9105556,18.225917 L16.9105556,18.225917 L10.999,12.314 L5.08737837,18.225917 C4.75159722,18.5616982 4.22597284,18.5902636 3.85965561,18.3052326 L3.77159726,18.2274379 C3.40867433,17.864515 3.40320607,17.2815689 3.77311819,16.9116568 L9.685,11 L3.77311819,5.08847955 C3.43166085,4.74702221 3.41005425,4.22404482 3.69419932,3.86015851 L3.77159726,3.77269844 Z" opacity=".3" transform="translate(-3 -3)"/>
</svg>
