<svg xmlns="http://www.w3.org/2000/svg" width="24" height="24" viewBox="0 0 24 24">
  <path fill="#333" fill-opacity=".25" d="M276,153 C282.627417,153 288,158.372583 288,165 C288,171.627417 282.627417,177 276,177 C269.372583,177 264,171.627417 264,165 C264,158.372583 269.372583,153 276,153 Z M281.761357,159.238643 C281.443166,158.920452 280.927276,158.920452 280.609085,159.238643 L280.609085,159.238643 L276,163.847729 L271.390915,159.238643 C271.072724,158.920452 270.556834,158.920452 270.238643,159.238643 C269.920452,159.556834 269.920452,160.072724 270.238643,160.390915 L270.238643,160.390915 L274.847729,165 L270.238643,169.609085 C269.920452,169.927276 269.920452,170.443166 270.238643,170.761357 C270.556834,171.079548 271.072724,171.079548 271.390915,170.761357 L271.390915,170.761357 L276,166.152271 L280.609085,170.761357 C280.927276,171.079548 281.443166,171.079548 281.761357,170.761357 C282.079548,170.443166 282.079548,169.927276 281.761357,169.609085 L281.761357,169.609085 L277.152271,165 L281.761357,160.390915 C282.079548,160.072724 282.079548,159.556834 281.761357,159.238643 Z" transform="translate(-264 -153)"/>
</svg>
