<svg xmlns="http://www.w3.org/2000/svg" width="60" height="60" viewBox="0 0 60 60">
  <g fill="#FF8933" fill-rule="evenodd">
    <rect width="60" height="60" fill-opacity=".1" rx="30"/>
    <path d="M50.1397779,39.0092196 C50.1397779,39.0092196 48.7211399,36.0829197 46.2906932,34.5752578 C43.8449306,33.071425 43.3548209,31.1243874 44.7725016,29.5755639 C44.7725016,29.5755639 45.5775452,28.5551401 47.1684875,29.2223403 C47.1684875,29.2223403 47.8366449,29.6626733 47.5264973,30.1470396 C47.217307,30.6361921 46.6831639,30.8132825 45.8848211,30.4102821 C45.8848211,30.4102821 44.7725016,30.4533582 45.2204926,31.6537442 C45.6579539,32.8503012 46.6343444,33.3777436 48.0156498,33.1604488 C49.3787676,32.9364533 50.6691347,31.7006492 50.3178256,29.6626733 C49.956944,27.6256546 48.4531111,26.0251399 46.1930542,25.9820638 C43.939698,25.9351588 42.2559029,27.5739633 42.0290357,29.4348488 C41.8107837,31.2976488 42.5191454,33.7797867 42.5191454,33.7797867 C42.5191454,33.7797867 44.3312114,41.002205 38.9294743,42.5893182 C38.9294743,42.5893182 37.5089218,42.8621332 36.8407644,42.908081 C36.1735642,42.9540288 36.5363603,43.0861287 36.4502082,43.4163785 C36.4502082,43.4163785 41.028714,47.2673776 46.6151995,46.0794358 C46.6151995,46.0794358 52.0466112,45.1690952 50.1397779,39.0092196 M20.3589092,38.5028366 C20.1320419,38.2970288 19.5567373,38.3994541 19.5567373,36.5337824 C19.5567373,34.6757686 15.4377094,34.6441795 14.8097563,34.9112511 C14.1798886,35.1677929 13.3451704,34.7791512 12.2184923,35.5765368 C11.0889425,36.3700934 11.69105,37.7648003 11.69105,37.7648003 C11.920789,38.4588034 13.1154315,38.5641004 13.6151137,38.3314897 C14.1119242,38.1007935 14.0468315,37.5982395 13.8170925,36.8353148 C13.5777811,36.0676038 14.1454278,35.8436083 14.1454278,35.8436083 C14.4153711,35.4425224 16.0043988,35.9355039 15.0749133,37.3685006 C14.1454278,38.7909676 15.6119281,39.6716336 15.6119281,39.6716336 C17.7054243,40.8222428 20.7178763,39.4055193 20.7178763,39.4055193 C20.8356175,39.1164311 20.5943916,38.695243 20.3589092,38.5028366 M28.7328939,51.4112939 C28.5041122,51.3988497 28.2762877,51.3988497 28.0408053,51.3988497 C27.6559926,51.3988497 27.2596929,51.3988497 26.8815809,51.4112939 C27.0328257,50.9192697 27.3171276,49.8002495 27.3171276,47.9537227 C27.3171276,47.9537227 27.1811987,45.8745852 28.2016226,46.8567192 C28.2016226,46.8567192 28.5117702,47.4693564 28.2896892,48.4878658 C28.066651,49.5044606 28.7328939,50.4846802 28.7328939,50.4846802 C28.7328939,50.4846802 28.9099844,51.1049753 28.7328939,51.4112939 M24.235754,15.4169438 C24.0270744,15.4169438 23.8471122,15.2963309 23.8471122,15.1479578 C23.8471122,14.9995848 24.0270744,14.8789718 24.235754,14.8789718 C24.4587922,14.8789718 24.6377971,14.9995848 24.6377971,15.1479578 C24.6377971,15.2963309 24.4587922,15.4169438 24.235754,15.4169438 M29.4355122,48.441918 C29.1760986,46.0468894 29.306284,44.1869612 29.8002228,43.2603474 C30.2826746,42.3308619 31.2150318,38.7852241 29.0430415,35.4166767 C26.8739229,32.0471721 25.1451373,30.5902443 25.3241422,25.5848069 C25.4964464,20.581284 25.5510094,18.7165695 25.5510094,18.7165695 C25.5510094,18.7165695 25.4591139,17.4616205 25.9396512,16.7207124 C26.6556709,15.6246661 26.2517132,13.5081961 24.1744902,13.5771178 C24.1744902,13.5771178 22.7970138,13.4440606 22.525156,14.9478935 C22.2619135,16.4545981 21.5573807,16.5426647 21.1984136,16.9427934 L21.4166656,17.0758505 C21.4166656,17.0758505 23.18757,16.1004172 24.1256707,17.1208411 C25.0513272,18.1383932 24.3936995,22.3052834 22.3949706,27.8381631 C22.3949706,27.8381631 18.1428855,35.4166767 23.1540664,42.1489852 L24.9613461,44.1046381 C24.9613461,44.1046381 26.1224851,44.9479715 25.9846417,47.6024136 C25.9846417,47.6024136 26.410616,50.2999318 25.9042331,51.4112939 C21.3640171,51.4323533 17.9715386,51.5529663 17.9715386,51.6994249 C17.9715386,51.8592849 22.4792082,52 28.0408053,52 C33.6081459,52 38.1139011,51.8592849 38.1139011,51.6994249 C38.1139011,51.5510518 34.4055315,51.4227809 29.5685693,51.4112939 C29.6020729,50.9116117 29.6116454,49.981169 29.4355122,48.441918 M29.1368516,14.4137504 C29.1368516,14.4137504 29.5743128,14.9057747 30.3764847,14.6817792 C31.1709985,14.4635272 31.34426,13.352165 30.5909077,13.0027704 C29.8490423,12.6418888 31.3930795,12.5566939 31.7032271,13.0027704 C31.7032271,13.0027704 32.8528791,13.8853508 31.6151605,15.0809506 C31.6151605,15.0809506 30.9910363,15.6600842 29.8940329,15.6141364 C28.7797989,15.5681887 27.0050656,16.3224982 26.8739229,18.1824265 C26.8739229,18.1824265 26.7868136,27.2695592 26.8739229,29.0423781 C26.9581605,30.8132825 27.899133,31.6537442 27.899133,31.6537442 C27.899133,31.6537442 32.7695987,35.9938959 31.34426,40.5628292 C31.34426,40.5628292 35.7456754,43.4393524 39.3688501,41.0462383 C39.3688501,41.0462383 42.0290357,39.0982434 41.0086118,35.5526056 C39.9948887,32.0069678 35.6891979,32.4023103 34.8927695,32.7555339 C34.1001701,33.1192872 32.7695987,34.4852768 33.8311841,36.1719435 C33.8311841,36.1719435 34.7156791,37.2373579 36.1735642,36.6563098 C36.1735642,36.6563098 37.5089218,36.2600101 36.4875407,34.9744293 C36.4875407,34.9744293 35.8653311,34.8002106 36.2281272,34.439329 C36.5813508,34.0861053 37.2370641,33.9980387 37.5950739,34.708315 C37.954041,35.4166767 38.3034357,37.7648003 36.0912411,38.1658862 C33.8761747,38.5641004 31.4380701,36.4782621 32.3694701,33.6878911 C33.2960838,30.8994346 35.7456754,30.7252159 36.4875407,30.8132825 C37.2370641,30.8994346 39.9451119,31.3474256 41.0574314,33.4275203 C41.0574314,33.4275203 41.4537311,32.8072252 40.9674503,32.1811865 C40.4811695,31.5628058 39.5909311,28.9007058 42.2970645,26.5181214 C44.9945826,24.1230928 44.2488883,20.4903457 41.8107837,19.3349502 C39.3688501,18.1824265 38.2249416,18.4944885 37.0638026,19.0276744 C35.9198941,19.5560739 35.3867083,22.4373833 38.2249416,22.5723549 C38.2249416,22.5723549 40.0322213,22.6594643 39.6770832,21.1518024 C39.6770832,21.1518024 39.6770832,20.8024077 39.2357929,20.7545455 C38.7925882,20.7114694 39.111351,19.5560739 40.0322213,20.2644357 C40.9674503,20.9756692 40.9167163,22.5302361 39.8551309,23.4568499 C38.7925882,24.3825064 36.1343171,24.1671261 35.3867083,22.39335 C34.629527,20.6214883 35.1588838,18.1383932 37.1107076,17.5200125 C39.060617,16.8968456 40.9674503,17.2089077 42.2970645,18.453327 C42.2970645,18.453327 43.0504168,19.0276744 43.4036404,18.6706217 C43.4036404,18.6706217 43.1403979,16.8968456 38.8825693,15.39397 C34.629527,13.8853508 35.0258267,13.3110035 34.2313128,12.5566939 C33.4367989,11.8023844 31.4811461,10.6938939 29.2651225,12.1144464 C29.2651225,12.1144464 28.066651,13.1769891 29.1368516,14.4137504 M26.7006614,13.8642914 C26.4575211,12.9367204 27.2271465,11.9584154 28.1154705,11.672199 C28.998051,11.3831108 29.4355122,10.7388845 29.4862462,9.85534675 C29.5331513,8.9689373 28.9406162,8.21558499 28.0293184,8.03849455 C27.1228068,7.86044686 26.7006614,8.32471099 26.6499274,8.92298951 C26.6068514,9.52126803 27.342016,9.69835847 27.342016,9.69835847 C27.3171276,9.47532024 27.5813274,9.07614881 27.899133,9.18814655 C28.2016226,9.29918704 28.2896892,9.38821088 28.2016226,10.1415632 C28.1154705,10.8949155 27.3793486,11.2270797 27.0739872,10.783875 C26.7657541,10.339713 26.0813235,10.5646658 26.0813235,10.5646658 C24.4808088,11.1399704 26.2947893,13.7532509 26.2947893,13.7532509 C26.4575211,13.9303414 26.7006614,13.8642914 26.7006614,13.8642914 M18.6329953,17.8617492 C19.1604376,17.0318172 18.468349,16.7647457 18.3659238,16.7647457 C18.2701992,16.7647457 17.6661772,16.8662137 17.9016596,16.1004172 C18.1333131,15.3374925 18.9680313,15.6744429 18.9680313,15.6744429 C19.8352958,16.0324528 20.6929879,17.0318172 18.799556,21.2551849 C16.8994235,25.4785526 20.3589092,29.560248 20.3589092,29.560248 C23.5800407,24.7749771 23.5800407,17.9976781 23.5800407,17.9976781 C23.41348,17.6961457 22.7233059,17.9976781 21.4578271,18.0283099 C20.1980919,18.0646853 20.0669492,16.6316885 20.4259164,16.4019496 C20.7944559,16.1683817 20.7944559,15.9683173 20.7944559,15.9683173 C20.9265558,15.0014992 20.1980919,14.4395961 19.1288485,14.1074318 C18.0701349,13.7733531 15.3764457,14.0404246 15.2788066,16.4019496 C15.1744668,18.7615601 18.097895,18.6897666 18.6329953,17.8617492 M12.8933505,31.430706 C13.5155602,31.7398963 14.0879931,31.0746106 14.0879931,31.0746106 C14.9313265,29.9192151 13.6955223,29.283604 13.6955223,29.283604 C12.5439559,28.8222116 11.4967291,29.3956017 11.2315721,30.6773536 C10.9616288,31.9638918 12.3170886,34.1569415 14.6862716,33.5366463 C17.0602407,32.9144367 18.3659238,33.5098435 18.3659238,33.5098435 C18.6329953,34.3091436 19.3863476,34.3531769 19.3863476,34.3531769 C19.7587162,34.0439865 19.4744142,32.8503012 19.4744142,32.8503012 C19.407407,31.4029458 20.1866049,31.5005849 20.1866049,31.5005849 C20.2650991,31.0966272 19.8075357,30.8755035 19.8075357,30.8755035 C17.37326,29.2357417 17.0152502,26.5611974 17.2143573,24.2781666 C17.4134644,21.996093 17.5264193,21.0627786 17.1052313,20.908662 C16.6773425,20.7545455 16.9243118,20.1141481 16.4887651,19.8078295 C16.0379024,19.490024 15.8655982,20.4022791 16.0379024,20.7545455 C16.2207363,21.1068119 16.2207363,22.39335 14.602034,22.4593999 C12.9852461,22.5302361 12.9584432,21.1757335 13.1776525,20.7545455 C13.4035624,20.3352719 13.998012,20.8876026 13.998012,20.8876026 C15.1333053,21.465779 15.2845501,20.355374 15.2845501,20.355374 C15.3477283,19.5828768 14.4708913,19.0276744 13.3384697,19.4498197 C12.2089199,19.8671788 12.2242358,21.4830094 12.5152385,23.4147311 C12.8071984,25.339752 11.9849244,25.7571111 11.9849244,25.7571111 C10.0570317,27.0216326 9.90387242,28.7331878 10.0350151,29.5047277 C10.163286,30.2781822 10.814213,30.0570585 10.814213,30.0570585 C10.6983863,29.5966233 11.0161918,28.8834753 11.0161918,28.8834753 C11.8719694,27.3557113 13.666805,27.8381631 13.666805,27.8381631 C15.6617049,28.5551401 15.6617049,29.8828398 15.5784245,30.9922875 C15.4884434,32.0921627 14.1626582,32.4291131 14.1626582,32.4291131 C12.0988366,32.8503012 12.4032407,31.4527226 12.5439559,31.2526583 C12.6741413,31.0564229 12.8933505,31.430706 12.8933505,31.430706"/>
  </g>
</svg>
