<svg xmlns="http://www.w3.org/2000/svg" width="40" height="48" viewBox="0 0 40 48">
  <path fill="#999" fill-opacity=".6" d="M196.333341,301 L169.66667,301 C168.200006,301 167,302.199996 167,303.66667 L167,346.33333 C167,347.799994 168.199996,349 169.66667,349 L204.33333,349 C205.799994,349 207,347.800004 207,346.33333 L207,311.66666 L196.333341,301 Z M197.66667,306.33333 L201.66667,310.33333 L197.66667,310.33333 L197.66667,306.33333 Z M204.33333,344.999989 C204.33333,345.799983 203.800004,346.333319 203,346.333319 L171.000011,346.333319 C170.200006,346.333319 169.666681,345.799983 169.666681,344.999989 L169.666681,305 C169.666681,304.199996 170.200017,303.66667 171.000011,303.66667 L195,303.66667 L195,313 L204.33333,313 L204.33333,344.999989 Z M197.66667,338.333319 L176.33334,338.333319 C175.533336,338.333319 175.000011,337.799983 175.000011,336.999989 C175.000011,336.199996 175.533347,335.66666 176.33334,335.66666 L197.66667,335.66666 C198.466675,335.66666 199,336.199996 199,336.999989 C199,337.799983 198.466664,338.333319 197.66667,338.333319 Z M197.66667,330.33333 L176.33334,330.33333 C175.533336,330.33333 175.000011,329.799994 175.000011,329 C175.000011,328.199996 175.533347,327.66667 176.33334,327.66667 L197.66667,327.66667 C198.466675,327.66667 199,328.200007 199,329 C199,329.799994 198.466664,330.33333 197.66667,330.33333 Z M197.66667,322.33333 L176.33334,322.33333 C175.533336,322.33333 175.000011,321.799994 175.000011,321 C175.000011,320.199996 175.533347,319.66667 176.33334,319.66667 L197.66667,319.66667 C198.466675,319.66667 199,320.200007 199,321 C199,321.799994 198.466664,322.33333 197.66667,322.33333 Z" transform="translate(-167 -301)"/>
</svg>
