<svg xmlns="http://www.w3.org/2000/svg" width="20" height="20" viewBox="0 0 20 20">
  <defs>
    <linearGradient id="scan-a" x1="0%" x2="100%" y1="50%" y2="50%">
      <stop offset="0%" stop-color="#FF974C"/>
      <stop offset="100%" stop-color="#FF6B00"/>
    </linearGradient>
  </defs>
  <path fill="url(#scan-a)" d="M313.5556,163.7778 C313.702971,163.7778 313.84432,163.719334 313.948527,163.615127 C314.052734,163.510921 314.111253,163.369571 314.1112,163.2222 L314.1112,157.1112 L320.2222,157.1112 C320.529049,157.1112 320.7778,156.86245 320.7778,156.5556 C320.7778,156.248751 320.529049,156 320.2222,156 L313.5556,156 C313.408229,156 313.26688,156.058466 313.162673,156.162673 C313.058466,156.26688 313,156.40823 313,156.5556 L313,163.2222 C313,163.369571 313.058466,163.510921 313.162673,163.615127 C313.26688,163.719334 313.408229,163.7778 313.5556,163.7778 Z M320.2222,174.8888 L314.1112,174.8888 L314.1112,168.7778 C314.1112,168.470951 313.862449,168.2222 313.5556,168.2222 C313.248751,168.2222 313,168.470951 313,168.7778 L313,175.4444 C313,175.591771 313.058466,175.73312 313.162673,175.837327 C313.26688,175.941534 313.408229,176 313.5556,176 L320.2222,176 C320.529049,176 320.7778,175.751249 320.7778,175.4444 C320.7778,175.137551 320.529049,174.8888 320.2222,174.8888 Z M332.4444,156 L325.7778,156 C325.579303,156 325.395884,156.105897 325.296636,156.2778 C325.197388,156.449704 325.197388,156.661497 325.296636,156.8334 C325.395884,157.005304 325.579303,157.1112 325.7778,157.1112 L331.8888,157.1112 L331.8888,163.2222 C331.8888,163.52905 332.13755,163.7778 332.4444,163.7778 C332.751249,163.7778 333,163.52905 333,163.2222 L333,156.5556 C333.000106,156.408213 332.941604,156.266833 332.837386,156.162614 C332.733167,156.058396 332.591787,155.999894 332.4444,156 Z M332.4444,168.2222 C332.297013,168.222094 332.155632,168.280596 332.051414,168.384814 C331.947196,168.489033 331.888694,168.630413 331.8888,168.7778 L331.8888,174.8888 L325.7778,174.8888 C325.47095,174.8888 325.2222,175.137551 325.2222,175.4444 C325.2222,175.751249 325.47095,176 325.7778,176 L332.4444,176 C332.591787,176.000106 332.733167,175.941604 332.837386,175.837386 C332.941604,175.733168 333.000106,175.591787 333,175.4444 L333,168.7778 C333.000106,168.630413 332.941604,168.489033 332.837386,168.384814 C332.733167,168.280596 332.591787,168.222094 332.4444,168.2222 L332.4444,168.2222 Z M332.4444,165.4444 L313.5556,165.4444 C313.248751,165.4444 313,165.693151 313,166 C313,166.30685 313.248751,166.5556 313.5556,166.5556 L332.4444,166.5556 C332.751249,166.5556 333,166.30685 333,166 C333,165.693151 332.751249,165.4444 332.4444,165.4444 Z" transform="translate(-313 -156)"/>
</svg>
