<svg xmlns="http://www.w3.org/2000/svg" width="48" height="48" viewBox="0 0 48 48">
  <g fill="none" transform="translate(0 5)">
    <polygon fill="#FF974C" points="12.184 29.936 35.567 29.936 35.567 6.57 12.184 6.57"/>
    <path fill="#333" d="M39.0419516,37.413354 L8.59504472,37.413354 C6.6200087,37.4095975 5.01984969,35.8089019 5.0161528,33.8329714 L5.0161528,22.909841 C5.0161528,22.1664671 5.6185677,21.5638733 6.36164348,21.5638733 C7.10448075,21.5638733 7.70695528,22.1664671 7.70695528,22.909841 L7.70695528,33.8329714 C7.70695528,34.0686186 7.80057019,34.294487 7.96710932,34.461205 C8.1336746,34.6277036 8.35953298,34.7212554 8.59504472,34.7212994 L39.0419516,34.7212994 C39.2775076,34.7212836 39.5034052,34.6276738 39.6699293,34.4610714 C39.8364534,34.294469 39.929957,34.0685274 39.9298621,33.8329714 L39.9298621,23.2731503 C39.930041,22.5299553 40.5323366,21.9273615 41.2751739,21.9273615 C42.0182497,21.9273615 42.6207242,22.5299553 42.6207242,23.2731503 L42.6207242,33.8329714 C42.6169677,35.8089019 41.0168087,37.4095975 39.0418919,37.413354 L39.0419516,37.413354 Z M6.36164348,15.4459304 C5.6185677,15.4459304 5.0161528,14.8433963 5.0161528,14.0999627 L5.0161528,3.60740124 C5.01984969,1.63164969 6.6200087,0.0307751553 8.59504472,0.0270186335 L39.0419516,0.0270186335 C41.0168087,0.0307751553 42.6169677,1.63159006 42.6207242,3.60740124 L42.6207242,14.0056919 C42.6207242,14.7490658 42.0182497,15.3514807 41.2751739,15.3514807 C40.5323366,15.3514807 39.930041,14.7490658 39.9298621,14.0056919 L39.9298621,3.60740124 C39.9298621,3.37193292 39.8363068,3.14588571 39.6697081,2.97934658 C39.5032827,2.81272624 39.2774505,2.71909422 39.0419516,2.71907329 L8.59504472,2.71907329 C8.35947713,2.71910492 8.13357033,2.81271411 7.96702126,2.97930792 C7.80047218,3.14590173 7.70692365,3.37183365 7.70695528,3.60740124 L7.70695528,14.1000224 C7.70695528,14.8433963 7.10471925,15.4459304 6.36164348,15.4459304 Z M46.381241,20.2177863 L1.37018012,20.2177863 C0.626985093,20.2177863 0.024689441,19.6150137 0.024689441,18.8716398 C0.024689441,18.1282658 0.626925466,17.525672 1.37018012,17.525672 L46.381241,17.525672 C47.1242571,17.525672 47.7265528,18.1282658 47.7265528,18.8716398 C47.7265528,19.6150137 47.1243168,20.2177863 46.381241,20.2177863 L46.381241,20.2177863 Z"/>
  </g>
</svg>
