<svg xmlns="http://www.w3.org/2000/svg" width="12" height="12" viewBox="0 0 12 12">
  <g fill="#999" fill-rule="evenodd">
    <path fill-rule="nonzero" d="M5.35651795,0.857043575 L5.35651776,0.857043575 C7.84150502,0.857043575 9.85599565,2.87152248 9.85599565,5.35652147 C9.85599565,7.84150873 7.84151674,9.85599936 5.35651776,9.85599936 C2.87153049,9.85599936 0.857039863,7.84152045 0.857039863,5.35652147 L0.857039863,5.35652195 C0.857039863,2.87153468 2.87151877,0.857043575 5.35651776,0.857043575 C5.35651782,0.857043575 5.35651789,0.857043575 5.35651795,0.857043575 L5.35651795,0.857043575 Z M5.35651795,4.82723982e-07 L5.35651772,4.82723982e-07 C2.39819787,4.82723982e-07 -2.34141222e-07,2.39819859 -2.34141222e-07,5.35651843 C-2.34141222e-07,8.31483828 2.39819787,10.7130364 5.35651772,10.7130364 C8.31483757,10.7130364 10.7130357,8.31483828 10.7130357,5.35651843 L10.7130357,5.35651867 C10.7130357,2.39819882 8.31483757,4.82723982e-07 5.35651772,4.82723982e-07 L5.35651795,4.82723982e-07 Z"/>
    <path d="M9.14679971,8.71826079 L9.1467997,8.71826079 C9.03289742,8.71760942 8.92341897,8.7623257 8.84254895,8.84253959 L8.84254894,8.8425396 C8.67510773,9.00979448 8.67495656,9.28111901 8.84221186,9.44856023 C8.84232416,9.44867266 8.84243653,9.44878503 8.84254896,9.44889733 L11.2679815,11.8743298 L11.2679815,11.8743299 C11.4352364,12.0417711 11.7065609,12.0419222 11.8740021,11.8746669 C11.8741145,11.8745546 11.8742269,11.8744423 11.8743392,11.8743298 L11.8743392,11.8743298 C12.0417804,11.7070749 12.0419316,11.4357504 11.8746763,11.2683092 C11.874564,11.2681968 11.8744516,11.2680844 11.8743392,11.2679721 L9.44890669,8.84253957 L9.44890669,8.84253958 C9.3685625,8.76285151 9.25995921,8.71817771 9.14679931,8.71826079 L9.14679971,8.71826079 Z"/>
  </g>
</svg>
