<svg xmlns="http://www.w3.org/2000/svg" width="19" height="20" viewBox="0 0 19 20">
  <path fill="#FFF" d="M18.6838799,12.5419945 L17.2217447,11.2919248 C17.290945,10.867794 17.3266613,10.4347341 17.3266613,10.0016742 C17.3266613,9.56861432 17.290945,9.13555444 17.2217447,8.71142363 L18.6838799,7.46135387 C18.9093389,7.26937887 18.9919328,6.95686143 18.8914807,6.67559574 L18.8713903,6.61755678 C18.4673499,5.49026173 17.8691023,4.45448965 17.0922732,3.53926 L17.0520924,3.49238239 C16.8601174,3.26692338 16.5498322,3.18209722 16.2685665,3.28031698 L14.4537331,3.92544227 C13.7840529,3.37630448 13.0362433,2.9432446 12.2281625,2.63965623 L11.8776965,0.742228919 C11.8241221,0.449801886 11.5941985,0.222110609 11.3017715,0.168536191 L11.2415003,0.157374854 C10.078489,-0.0524582845 8.8552064,-0.0524582845 7.69219507,0.157374854 L7.63192385,0.168536191 C7.33949682,0.222110609 7.10957328,0.449801886 7.05599886,0.742228919 L6.7033006,2.6485853 C5.9019166,2.95217367 5.15857155,3.38300128 4.49335585,3.9299068 L2.66512883,3.28031698 C2.3860954,3.18209722 2.07357796,3.26469111 1.88160296,3.49238239 L1.84142215,3.53926 C1.06459309,4.45672192 0.466345416,5.492494 0.0623050124,6.61755678 L0.0422146055,6.67559574 C-0.0582374286,6.95462916 0.0243564661,7.2671466 0.249815476,7.46135387 L1.72980878,8.72481723 C1.66060849,9.14448351 1.62712448,9.57307885 1.62712448,9.99944193 C1.62712448,10.4280373 1.66060849,10.8566326 1.72980878,11.2740666 L0.249815476,12.53753 C0.0243564661,12.729505 -0.0582374286,13.0420224 0.0422146055,13.3232881 L0.0623050124,13.3813271 C0.466345416,14.5063899 1.06459309,15.5443942 1.84142215,16.4596239 L1.88160296,16.5065015 C2.07357796,16.7319605 2.38386314,16.8167867 2.66512883,16.7185669 L4.49335585,16.0689771 C5.15857155,16.6158826 5.9019166,17.0489425 6.7033006,17.3502986 L7.05599886,19.2566549 C7.10957328,19.549082 7.33949682,19.7767733 7.63192385,19.8303477 L7.69219507,19.841509 C8.27481687,19.9464256 8.87083227,20 9.46684768,20 C10.0628631,20 10.6611107,19.9464256 11.2415003,19.841509 L11.3017715,19.8303477 C11.5941985,19.7767733 11.8241221,19.549082 11.8776965,19.2566549 L12.2281625,17.3592276 C13.0362433,17.0556393 13.7840529,16.6248117 14.4537331,16.0734416 L16.2685665,16.7185669 C16.5476,16.8167867 16.8601174,16.7341928 17.0520924,16.5065015 L17.0922732,16.4596239 C17.8691023,15.542162 18.4673499,14.5063899 18.8713903,13.3813271 L18.8914807,13.3232881 C18.9919328,13.0487192 18.9093389,12.7362018 18.6838799,12.5419945 L18.6838799,12.5419945 Z M15.6368348,8.97483118 C15.6926415,9.31190357 15.721661,9.65790502 15.721661,10.0039065 C15.721661,10.3499079 15.6926415,10.6959094 15.6368348,11.0329818 L15.4895052,11.928121 L17.157009,13.3545399 C16.9047627,13.9371617 16.5855485,14.4862995 16.206063,14.9974887 L14.1345189,14.2630727 L13.4335869,14.8389977 C12.900075,15.2765221 12.3062918,15.6202913 11.6633988,15.8613762 L10.8129049,16.1805904 L10.4133291,18.3458898 C9.78606192,18.4173224 9.14540117,18.4173224 8.51590175,18.3458898 L8.11632588,16.1761259 L7.2725288,15.8524471 C6.63633258,15.6113622 6.04478171,15.2675931 5.51573433,14.8323009 L4.81480236,14.2541436 L2.72986459,14.9952564 C2.35037912,14.4840672 2.03339715,13.9326971 1.77891866,13.3523076 L3.46428057,11.9124951 L3.31918319,11.0195881 C3.26560877,10.6869803 3.23658929,10.3432111 3.23658929,10.0039065 C3.23658929,9.66236955 3.2633765,9.32083264 3.31918319,8.98822479 L3.46428057,8.09531782 L1.77891866,6.65550533 C2.03116488,6.07288353 2.35037912,5.52374574 2.72986459,5.0125565 L4.81480236,5.75366929 L5.51573433,5.17551203 C6.04478171,4.74021988 6.63633258,4.39645069 7.2725288,4.15536581 L8.11855815,3.83615157 L8.51813402,1.66638763 C9.14540117,1.59495508 9.78606192,1.59495508 10.4155613,1.66638763 L10.8151372,3.83168704 L11.6656311,4.15090128 C12.3062918,4.39198616 12.9023072,4.73575534 13.4358192,5.17327976 L14.1367511,5.74920475 L16.2082953,5.01478877 C16.5877808,5.52597801 16.9047627,6.07734807 17.1592412,6.6577376 L15.4917375,8.08415648 L15.6368348,8.97483118 Z M9.46907994,5.85188906 C7.29931601,5.85188906 5.54028927,7.61091579 5.54028927,9.78067973 C5.54028927,11.9504437 7.29931601,13.7094704 9.46907994,13.7094704 C11.6388439,13.7094704 13.3978706,11.9504437 13.3978706,9.78067973 C13.3978706,7.61091579 11.6388439,5.85188906 9.46907994,5.85188906 Z M11.2370357,11.5486355 C10.7637951,12.019644 10.1365279,12.2808192 9.46907994,12.2808192 C8.80163198,12.2808192 8.17436484,12.019644 7.70112414,11.5486355 C7.23011572,11.0753948 6.96894043,10.4481277 6.96894043,9.78067973 C6.96894043,9.11323177 7.23011572,8.48596462 7.70112414,8.01272392 C8.17436484,7.53948323 8.80163198,7.28054021 9.46907994,7.28054021 C10.1365279,7.28054021 10.7637951,7.53948323 11.2370357,8.01272392 C11.7080442,8.48596462 11.9692195,9.11323177 11.9692195,9.78067973 C11.9692195,10.4481277 11.7080442,11.0753948 11.2370357,11.5486355 Z"/>
</svg>
