<svg xmlns="http://www.w3.org/2000/svg" width="16" height="16" viewBox="0 0 16 16">
  <path fill="#FF8933" d="M7.42857142,6.28571428 L8.57142858,6.28571428 L8.57142858,7.42857142 L7.42857142,7.42857142 L7.42857142,6.28571428 Z M7.42857142,8.57142858 L8.57142858,8.57142858 L8.57142858,13.7142857 L7.42857142,13.7142857 L7.42857142,8.57142858 Z M8,2 C3.58171428,2 0,5.58171428 0,10 C0,14.4182857 3.58171428,18 8,18 C12.4182857,18 16,14.4182857 16,10 C16,5.58171428 12.4182857,2 8,2 Z M8,16.8571429 C4.21314286,16.8571429 1.14285714,13.7868571 1.14285714,10 C1.14285714,6.21314286 4.21314286,3.14285714 8,3.14285714 C11.7862857,3.14285714 14.8571429,6.21314286 14.8571429,10 C14.8571429,13.7868571 11.7868571,16.8571429 8,16.8571429 Z" transform="matrix(1 0 0 -1 0 18)"/>
</svg>
